<?xml version="1.0" standalone="no"?>
<!DOCTYPE svg PUBLIC "-//W3C//DTD SVG 20010904//EN"
 "http://www.w3.org/TR/2001/REC-SVG-20010904/DTD/svg10.dtd">
<svg version="1.0" xmlns="http://www.w3.org/2000/svg"
 width="1024.000000pt" height="1024.000000pt" viewBox="0 0 1024.000000 1024.000000"
 preserveAspectRatio="xMidYMid meet">

<g transform="translate(0.000000,1024.000000) scale(0.100000,-0.100000)"
fill="#000000" stroke="none">
<path d="M3363 7121 c-94 -6 -104 -8 -139 -37 -69 -55 -79 -76 -82 -174 -3
-71 0 -96 16 -131 19 -42 227 -302 335 -419 l51 -55 -520 -5 c-564 -5 -548 -4
-584 -63 -36 -58 -15 -147 40 -177 14 -8 172 -11 526 -10 434 0 505 -2 510
-14 8 -22 3 -29 -178 -221 -92 -98 -174 -192 -182 -210 -21 -44 -22 -248 -2
-296 21 -51 53 -86 104 -117 l47 -27 265 -3 c146 -1 271 -2 278 -2 7 0 12 -14
12 -35 0 -49 35 -150 70 -200 61 -88 152 -146 263 -166 211 -39 428 124 445
336 l5 65 571 1 c733 1 688 2 707 -21 9 -10 21 -45 28 -77 40 -203 253 -345
456 -303 170 35 295 167 313 332 l7 63 97 5 c87 5 100 8 139 35 23 17 52 48
63 70 20 38 21 55 21 340 0 281 -1 302 -20 338 -20 37 -106 145 -405 505 -116
139 -166 192 -199 209 -43 22 -52 23 -303 23 l-258 0 0 133 c0 155 -8 189 -55
244 -67 79 18 74 -1228 71 -612 -1 -1158 -4 -1214 -7z m2257 -971 l0 -730
-207 0 c-115 0 -352 -3 -528 -7 -346 -7 -334 -8 -405 48 -58 46 -131 69 -219
69 -100 0 -163 -19 -237 -72 l-59 -43 -292 -3 -293 -3 0 61 0 60 78 82 c42 45
170 178 283 296 221 229 231 243 204 308 -8 20 -70 93 -137 162 -140 145 -341
361 -381 410 -28 35 -36 77 -14 85 6 3 506 6 1110 6 l1097 1 0 -730z m740 222
c80 -83 423 -508 438 -543 9 -22 12 -84 10 -222 l-3 -192 -90 -3 -90 -3 -53
40 c-142 107 -331 110 -471 7 -48 -35 -50 -36 -145 -36 l-96 0 0 498 c0 274 3
502 7 505 3 4 103 7 222 7 l215 0 56 -58z m-2043 -1088 c68 -33 107 -118 84
-187 -6 -18 -27 -49 -46 -67 -30 -29 -43 -34 -92 -38 -48 -3 -64 0 -92 20
-101 68 -98 207 5 265 47 27 93 29 141 7z m2083 -6 c33 -17 51 -35 68 -68 27
-55 28 -82 1 -136 -52 -108 -196 -115 -272 -13 -26 36 -27 115 -1 159 21 37
93 80 133 80 15 0 47 -10 71 -22z"/>
<path d="M4999 4650 c-67 -19 -99 -59 -99 -128 0 -63 61 -122 125 -122 82 0
149 85 126 160 -19 65 -89 107 -152 90z"/>
<path d="M6871 4649 c-48 -10 -91 -57 -98 -106 -14 -107 107 -181 198 -120
120 80 42 257 -100 226z"/>
<path d="M2440 4030 l0 -620 110 0 110 0 0 620 0 620 -110 0 -110 0 0 -620z"/>
<path d="M1379 4606 c-2 -3 -3 -271 -2 -598 l3 -593 287 -3 c366 -4 435 8 539
93 120 99 141 343 39 448 -37 38 -102 77 -130 77 -23 0 -18 17 8 24 35 9 95
64 120 109 18 35 22 58 22 132 0 78 -4 97 -27 141 -44 84 -131 142 -243 163
-55 10 -606 16 -616 7z m591 -211 c66 -39 90 -137 50 -203 -36 -59 -88 -74
-266 -75 l-154 -2 0 153 0 154 168 -4 c146 -3 171 -6 202 -23z m29 -490 c51
-30 74 -67 78 -127 6 -73 -18 -115 -83 -148 -46 -23 -61 -25 -221 -28 l-173
-4 0 167 0 167 183 -4 c160 -3 186 -5 216 -23z"/>
<path d="M6190 4400 l0 -120 -75 0 -76 0 3 -91 3 -91 70 -2 70 -1 5 -265 c5
-246 6 -268 26 -305 28 -51 48 -69 109 -97 43 -20 67 -23 165 -23 63 0 123 3
133 7 14 6 17 21 17 99 l0 92 -68 -6 c-77 -8 -137 5 -152 33 -6 11 -10 111
-10 244 l0 226 115 0 115 0 0 90 0 90 -115 0 -114 0 -3 118 -3 117 -107 3
-108 3 0 -121z"/>
<path d="M8380 4297 c-77 -19 -120 -39 -165 -78 -40 -35 -95 -138 -95 -176 0
-21 5 -22 93 -25 92 -3 92 -3 112 26 35 51 70 70 139 74 117 8 189 -44 190
-137 l1 -46 -155 -6 c-188 -8 -263 -28 -333 -89 -56 -50 -82 -112 -81 -195 2
-163 133 -264 328 -253 91 5 152 27 208 77 20 17 39 31 43 31 4 0 5 -20 2 -45
l-5 -46 100 3 99 3 -1 311 c0 171 -4 324 -9 340 -28 96 -104 179 -199 214 -71
27 -198 34 -272 17z m278 -544 c7 -101 -105 -204 -222 -203 -49 1 -115 35
-127 67 -13 33 -6 97 12 119 35 42 121 63 254 60 l80 -1 3 -42z"/>
<path d="M3140 4284 c-167 -44 -293 -169 -329 -325 -6 -24 -11 -78 -11 -120
-1 -260 195 -450 465 -449 85 1 141 13 211 46 217 102 313 387 208 610 -90
191 -329 295 -544 238z m185 -185 c63 -18 118 -62 150 -121 26 -46 30 -63 30
-133 0 -63 -5 -89 -22 -121 -50 -93 -122 -138 -223 -138 -77 0 -129 23 -182
82 -46 50 -63 101 -62 182 2 114 65 206 166 241 62 21 89 23 143 8z"/>
<path d="M4110 4285 c-180 -51 -290 -210 -290 -420 0 -129 42 -243 119 -322
148 -153 383 -163 535 -23 l46 43 0 -41 c0 -121 -50 -219 -133 -257 -98 -46
-242 -27 -345 45 -23 16 -44 30 -46 30 -2 0 -31 -34 -66 -76 l-62 -75 22 -24
c32 -34 144 -91 216 -109 88 -23 246 -21 323 3 152 47 246 146 286 298 12 46
15 138 15 490 l0 433 -110 0 -110 0 0 -51 0 -51 -37 32 c-89 78 -240 109 -363
75z m282 -207 c171 -94 164 -351 -11 -440 -165 -84 -341 32 -341 223 0 111 58
198 157 235 53 20 142 12 195 -18z"/>
<path d="M5489 4285 c-202 -65 -276 -284 -139 -416 58 -57 127 -84 266 -106
114 -17 160 -39 170 -79 10 -39 -13 -75 -66 -102 -83 -43 -204 -15 -239 55
l-16 33 -104 0 -103 0 7 -37 c20 -107 98 -187 218 -224 56 -17 86 -20 165 -17
207 10 327 104 340 265 12 153 -80 239 -288 272 -164 26 -210 51 -210 111 0
99 215 123 268 30 l17 -30 100 2 100 3 -3 25 c-6 42 -54 120 -93 151 -71 56
-124 73 -239 76 -72 2 -120 -2 -151 -12z"/>
<path d="M7471 4284 c-252 -67 -385 -314 -313 -576 87 -312 489 -424 738 -205
48 42 121 175 111 201 -5 13 -25 16 -106 16 -100 0 -101 0 -115 -29 -19 -37
-79 -89 -114 -98 -15 -5 -54 -8 -88 -8 -79 0 -145 38 -188 108 -38 62 -48 176
-22 255 19 57 73 117 125 140 52 22 148 19 198 -6 39 -20 93 -74 93 -93 0 -5
49 -9 110 -9 64 0 110 4 110 10 0 34 -48 127 -90 173 -106 116 -286 165 -449
121z"/>
<path d="M4920 4275 c0 -3 0 -197 0 -432 l0 -428 105 -3 105 -3 0 436 0 435
-105 0 c-58 0 -105 -2 -105 -5z"/>
<path d="M6790 3845 l0 -435 110 0 110 0 0 435 0 435 -110 0 -110 0 0 -435z"/>
</g>
</svg>
